<svg xmlns="http://www.w3.org/2000/svg" xmlns:xlink="http://www.w3.org/1999/xlink" fill="none" version="1.1" width="32" height="32" viewBox="0 0 32 32"><g><g><rect x="0" y="0" width="32" height="32" rx="0" fill="#D8D8D8" fill-opacity="0"/></g><g><path d="M24.2857,2Q26.4107,2,27.9196,3.5089300000000003Q29.4286,5.017860000000001,29.4286,7.14286L29.4286,24.2857Q29.4286,26.4107,27.9196,27.9196Q26.4107,29.4286,24.2857,29.4286L20.9286,29.4286L20.9286,18.8036L24.4821,18.8036L25.0179,14.6607L20.9286,14.6607L20.9286,12.0179Q20.9286,11.01786,21.3482,10.51786Q21.7679,10.01786,22.9821,10.01786L25.1607,10L25.1607,6.30357Q24.0357,6.14286,21.9821,6.14286Q19.5536,6.14286,18.0982,7.57143Q16.642899999999997,9,16.642899999999997,11.60714L16.642899999999997,14.6607L13.0714,14.6607L13.0714,18.8036L16.642899999999997,18.8036L16.642899999999997,29.4286L7.14286,29.4286Q5.017860000000001,29.4286,3.5089300000000003,27.9196Q1.999999847412,26.4107,2,24.2857L2,7.14286Q2,5.017860000000001,3.5089300000000003,3.5089300000000003Q5.017860000000001,1.999999847412,7.14286,2L24.2857,2Z" fill="#415A9E" fill-opacity="1"/></g></g></svg>