<svg xmlns="http://www.w3.org/2000/svg" xmlns:xlink="http://www.w3.org/1999/xlink" fill="none" version="1.1" width="32" height="32" viewBox="0 0 32 32"><g><g><rect x="0" y="0" width="32" height="32" rx="0" fill="#D8D8D8" fill-opacity="0"/></g><g><path d="M29.6629,7.66372Q30.3333,10.2772,30.3333,15.7333Q30.3333,21.1895,29.6629,23.8029C29.2903,25.2477,28.2004,26.3843,26.8205,26.7687Q24.3141,27.4667,15.6667,27.4667Q7.02381,27.4667,4.5128,26.7687C3.12667,26.3785,2.03845,25.2434,1.6704759999999998,23.8029Q1,21.1895,1,15.7333Q1,10.2772,1.6701489999999999,7.66372C2.04271,6.21899,3.13256,5.08232,4.51247,4.697976Q7.02381,4,15.6667,4Q24.3141,4,26.8209,4.697976C28.2067,5.08821,29.2949,6.2235700000000005,29.6629,7.66372ZM12.7333,20.8667L21.5333,15.7333L12.7333,10.6L12.7333,20.8667Z" fill="#838383" fill-opacity="1"/></g></g></svg>