<svg xmlns="http://www.w3.org/2000/svg" xmlns:xlink="http://www.w3.org/1999/xlink" fill="none" version="1.1" width="14" height="14" viewBox="0 0 14 14"><defs><clipPath id="master_svg0_365_0493"><rect x="14" y="0" width="14" height="14" rx="0"/></clipPath></defs><g transform="matrix(0,1,-1,0,14,-14)" clip-path="url(#master_svg0_365_0493)"><g><path d="M22.166748046875,1.7499589765625C22.166748046875,1.4277929765625,22.427908046875,1.1666259765625,22.750078046875,1.1666259765625C22.750078046875,1.1666259765625,25.083418046875,1.1666259765625,25.083418046875,1.1666259765625C25.547548046875,1.1666259765625,25.992648046875,1.3509999765625,26.320848046875,1.6791889765625C26.649048046875002,2.0073779765625,26.833448046875,2.4524959765625,26.833448046875,2.9166259765625C26.833448046875,2.9166259765625,26.833448046875,11.0832959765625,26.833448046875,11.0832959765625C26.833448046875,11.5474259765625,26.649048046875002,11.9925259765625,26.320848046875,12.3207259765625C25.992648046875,12.6489259765625,25.547548046875,12.8333259765625,25.083418046875,12.8333259765625C25.083418046875,12.8333259765625,22.750078046875,12.8333259765625,22.750078046875,12.8333259765625C22.427908046875,12.8333259765625,22.166748046875,12.5721259765625,22.166748046875,12.2499259765625C22.166748046875,11.9278259765625,22.427908046875,11.6666259765625,22.750078046875,11.6666259765625C22.750078046875,11.6666259765625,25.083418046875,11.6666259765625,25.083418046875,11.6666259765625C25.238148046875,11.6666259765625,25.386548046875,11.6051259765625,25.495848046875,11.4957259765625C25.605248046874998,11.3864259765625,25.666748046875,11.2380259765625,25.666748046875,11.0832959765625C25.666748046875,11.0832959765625,25.666748046875,2.9166259765625,25.666748046875,2.9166259765625C25.666748046875,2.7619159765625003,25.605248046874998,2.6135459765625,25.495848046875,2.5041459765625C25.386548046875,2.3947559765625,25.238148046875,2.3332959765625,25.083418046875,2.3332959765625C25.083418046875,2.3332959765625,22.750078046875,2.3332959765625,22.750078046875,2.3332959765625C22.427908046875,2.3332959765625,22.166748046875,2.0721229765625,22.166748046875,1.7499589765625C22.166748046875,1.7499589765625,22.166748046875,1.7499589765625,22.166748046875,1.7499589765625ZM19.420938046875,3.6708159765625C19.648748046875,3.4430059765625,20.018088046875,3.4430059765625,20.245898046875,3.6708159765625C20.245898046875,3.6708159765625,23.162558046875,6.5874759765625,23.162558046875,6.5874759765625C23.390348046874998,6.8152859765625,23.390348046874998,7.1846459765625,23.162558046875,7.4124359765625C23.162558046875,7.4124359765625,20.245898046875,10.3290959765625,20.245898046875,10.3290959765625C20.018088046875,10.5568959765625,19.648748046875,10.5568959765625,19.420938046875,10.3290959765625C19.193128046875,10.1013059765625,19.193128046875,9.7319459765625,19.420938046875,9.5041459765625C19.420938046875,9.5041459765625,21.341798046875,7.5832959765625,21.341798046875,7.5832959765625C21.341798046875,7.5832959765625,15.750081046875,7.5832959765625,15.750081046875,7.5832959765625C15.427915046875,7.5832959765625,15.166748046875,7.3221359765625,15.166748046875,6.9999559765625C15.166748046875,6.6777859765625,15.427915046875,6.4166259765625,15.750081046875,6.4166259765625C15.750081046875,6.4166259765625,21.341798046875,6.4166259765625,21.341798046875,6.4166259765625C21.341798046875,6.4166259765625,19.420938046875,4.4957759765625,19.420938046875,4.4957759765625C19.193128046875,4.2679659765625,19.193128046875,3.8986259765625,19.420938046875,3.6708159765625C19.420938046875,3.6708159765625,19.420938046875,3.6708159765625,19.420938046875,3.6708159765625Z" fill-rule="evenodd" fill="#16273B" fill-opacity="1"/></g></g></svg>