<?xml version="1.0" encoding="utf-8"?>
<!-- Generator: Adobe Illustrator 27.5.0, SVG Export Plug-In . SVG Version: 6.00 Build 0)  -->
<svg version="1.1" id="图层_1" xmlns="http://www.w3.org/2000/svg" xmlns:xlink="http://www.w3.org/1999/xlink" x="0px" y="0px"
	 viewBox="0 0 200 200" style="enable-background:new 0 0 200 200;" xml:space="preserve">
<style type="text/css">
	.st0{fill:#FFFFFF;fill-opacity:0;}
	.st1{fill:#838486;}
</style>
<path class="st0" d="M0,0h200l0,0v200l0,0H0l0,0V0L0,0z"/>
<path class="st1" d="M50.9,121.4c0,9.4-7.2,17.1-16.1,17.1s-16.1-7.7-16.1-17.1s7.2-17.1,16.1-17.1h16.1V121.4z M58.9,121.4
	c0-9.4,7.2-17.1,16.1-17.1s16,7.6,16,17.1v42.8c0,9.4-7.2,17.1-16.1,17.1s-16.1-7.7-16.1-17.1L58.9,121.4L58.9,121.4z"/>
<path class="st1" d="M75,53c-8.9,0-16.1-7.7-16.1-17.1S66.1,18.8,75,18.8s16.1,7.7,16.1,17.1V53H75z M75,61.5
	c8.9,0,16.1,7.7,16.1,17.1S83.9,95.7,75,95.7H34.8c-8.9,0-16.1-7.7-16.1-17.1s7.2-17.1,16.1-17.1H75L75,61.5z"/>
<path class="st1" d="M139.2,78.6c0-9.4,7.2-17.1,16.1-17.1s16.1,7.7,16.1,17.1s-7.2,17.1-16.1,17.1h-16.1V78.6L139.2,78.6z
	 M131.2,78.6c0,9.4-7.2,17.1-16.1,17.1S99,88,99,78.6V35.9c0-9.4,7.2-17.1,16.1-17.1s16.1,7.7,16.1,17.1V78.6z"/>
<path class="st1" d="M115.1,147c8.9,0,16.1,7.7,16.1,17.1c0,9.4-7.2,17.1-16.1,17.1S99,173.5,99,164.1V147H115.1z M115.1,138.5
	c-8.9,0-16.1-7.7-16.1-17.1s7.2-17.1,16.1-17.1h40.2c8.9,0,16.1,7.7,16.1,17.1c0,9.5-7.2,17.1-16.1,17.1H115.1z"/>
</svg>
