<svg xmlns="http://www.w3.org/2000/svg" xmlns:xlink="http://www.w3.org/1999/xlink" fill="none" version="1.1" width="32" height="32" viewBox="0 0 32 32"><g><g><rect x="0" y="0" width="32" height="32" rx="0" fill="#FFFFFF" fill-opacity="0"/></g><g><g><path d="M8.140789999999999,19.42140976776123C8.140789999999999,20.93187976776123,6.99053,22.15721976776123,5.570399999999999,22.15721976776123C4.15135,22.15721976776123,3,20.93187976776123,3,19.42140976776123C3,17.91094976776123,4.15135,16.68560872776123,5.570399999999999,16.68560872776123L8.140789999999999,16.68560872776123L8.140789999999999,19.42140976776123ZM9.425989999999999,19.42140976776123C9.425989999999999,17.90877976776123,10.57734,16.68451976776123,11.99747,16.68451976776123C13.4165,16.68451976776123,14.5679,17.90985976776123,14.5679,19.42032976776123L14.5679,26.26310976776123C14.5679,27.77461976776123,13.4165,29.00001976776123,11.99747,29.00001976776123C10.57734,29.00001976776123,9.425989999999999,27.77461976776123,9.425989999999999,26.26310976776123L9.425989999999999,19.42032976776123L9.425989999999999,19.42140976776123Z" fill="#E01E5A" fill-opacity="1"/></g><g><path d="M11.99638,8.473790000000001C10.57734,8.473790000000001,9.425989999999999,7.24844,9.425989999999999,5.73689C9.425989999999999,4.22535,10.57734,3,11.99638,3C13.4165,3,14.5679,4.22535,14.5679,5.73689L14.5679,8.473790000000001L11.99638,8.473790000000001ZM11.99638,9.84169C13.4165,9.84169,14.5679,11.06813,14.5679,12.57859C14.5679,14.0912,13.4165,15.3155,11.99638,15.3155L5.570399999999999,15.3155C4.15135,15.3155,3,14.0901,3,12.57859C3,11.06813,4.15135,9.84169,5.570399999999999,9.84169L11.99638,9.84169Z" fill="#36C5F0" fill-opacity="1"/></g><g><path d="M22.278988683776856,12.57859C22.278988683776856,11.06813,23.429238683776855,9.84169,24.849378683776855,9.84169C26.268408683776855,9.84169,27.419808683776857,11.06813,27.419808683776857,12.57859C27.419808683776857,14.0912,26.268408683776855,15.3155,24.849378683776855,15.3155L22.278988683776856,15.3155L22.278988683776856,12.57859ZM20.993788683776856,12.57859C20.993788683776856,14.0912,19.842438683776855,15.3155,18.422308683776855,15.3155C17.003258683776856,15.3155,15.851908683776855,14.0901,15.851908683776855,12.57859L15.851908683776855,5.73689C15.851908683776855,4.22535,17.003258683776856,3,18.422308683776855,3C19.842438683776855,3,20.993788683776856,4.22535,20.993788683776856,5.73689L20.993788683776856,12.57859Z" fill="#2EB67D" fill-opacity="1"/></g><g><path d="M18.423388683776857,23.526004678039552C19.842438683776855,23.526004678039552,20.993788683776856,24.75135467803955,20.993788683776856,26.26289467803955C20.993788683776856,27.77442467803955,19.842438683776855,28.999824678039552,18.423388683776857,28.999824678039552C17.003258683776856,28.999824678039552,15.851908683776855,27.77442467803955,15.851908683776855,26.26289467803955L15.851908683776855,23.526004678039552L18.423388683776857,23.526004678039552ZM18.423388683776857,22.157014678039552C17.003258683776856,22.157014678039552,15.851908683776855,20.931664678039553,15.851908683776855,19.42011467803955C15.851908683776855,17.90965467803955,17.003258683776856,16.68322467803955,18.423388683776857,16.68322467803955L24.848288683776858,16.68322467803955C26.268408683776855,16.68322467803955,27.418708683776856,17.90965467803955,27.418708683776856,19.42011467803955C27.418708683776856,20.93275467803955,26.268408683776855,22.157014678039552,24.848288683776858,22.157014678039552L18.423388683776857,22.157014678039552Z" fill="#ECB22E" fill-opacity="1"/></g></g></g></svg>