<svg xmlns="http://www.w3.org/2000/svg" xmlns:xlink="http://www.w3.org/1999/xlink" fill="none" version="1.1" width="32" height="32" viewBox="0 0 32 32"><g><g><rect x="0" y="0" width="32" height="32" rx="0" fill="#D8D8D8" fill-opacity="0"/></g><g><path d="M28.7419,9.80824C28.7419,9.50805,28.7362,9.211269999999999,28.7229,8.91652C30.0061,7.9604,31.1193,6.76355,31.9999,5.394019999999999C30.8041,5.9320699999999995,29.5316,6.28019,28.2285,6.4258C29.5848,5.59115,30.625,4.2562999999999995,31.1165,2.6544280000000002C29.8465,3.4245799999999997,28.4418,3.9752099999999997,26.9482,4.2621199999999995C25.7515,2.900397,24.0437,2.0330529999999998,22.1558,2.000865478C18.5299,1.9408968,15.5906,5.004989999999999,15.5906,8.84377C15.5906,9.3894,15.6477,9.91858,15.7609,10.42955C10.3009,10.07821,5.4625,7.23612,2.22606,2.951647C1.66134,3.9781500000000003,1.33731,5.1777999999999995,1.33731,6.46346C1.33731,8.89508,2.49644,11.05627,4.25753,12.3316C3.17941,12.2828,2.16944,11.95627,1.28359,11.4209L1.28359,11.51021C1.28359,14.9087,3.54734,17.7561,6.55109,18.4205C6.00044,18.5771,5.41963,18.6586,4.82228,18.6557C4.40725,18.6536,3.99356,18.6083,3.58791,18.5205C4.42253,21.3055,6.84828,23.3402,9.72009,23.408C7.4725,25.2717,4.64119,26.3849,1.56725,26.3771C1.03725,26.3771,0.5135,26.3415,0,26.2771C2.90659,28.2708,6.35681,29.4321,10.0658,29.4321C22.1392,29.435,28.7419,18.9261,28.7419,9.80824Z" fill="#838383" fill-opacity="1"/></g></g></svg>